<?xml version="1.0" standalone="no"?>
<!DOCTYPE svg PUBLIC "-//W3C//DTD SVG 20010904//EN"
 "http://www.w3.org/TR/2001/REC-SVG-20010904/DTD/svg10.dtd">
<svg version="1.0" xmlns="http://www.w3.org/2000/svg"
 width="300.000000pt" height="250.000000pt" viewBox="0 0 300.000000 250.000000"
 preserveAspectRatio="xMidYMid meet">

<g transform="translate(0.000000,250.000000) scale(0.100000,-0.100000)"
fill="#000000" stroke="none">
<path d="M2131 2257 c-19 -7 -47 -28 -63 -47 -30 -38 -486 -1147 -495 -1206
-5 -27 0 -38 25 -64 55 -55 152 -33 197 44 10 16 48 102 85 191 80 194 111
250 153 276 35 21 87 25 118 9 31 -17 23 -63 -41 -222 -67 -166 -75 -217 -38
-263 36 -45 74 -55 220 -55 73 0 150 5 170 10 52 15 88 61 88 114 0 67 -22 80
-137 84 -66 3 -93 7 -90 15 105 256 119 301 115 362 -5 77 -33 119 -102 151
-66 31 -133 31 -208 0 -32 -13 -58 -21 -58 -17 0 4 45 118 100 254 55 135 100
260 100 277 0 44 -16 69 -55 86 -40 16 -40 16 -84 1z"/>
<path d="M1473 1964 c-68 -34 -93 -126 -53 -191 54 -89 190 -82 234 12 54 113
-71 236 -181 179z"/>
<path d="M1125 1630 c-89 -27 -122 -130 -58 -180 21 -16 41 -20 110 -20 76 0
84 -2 79 -17 -4 -10 -53 -133 -109 -273 l-104 -255 -184 -6 c-212 -7 -282 -24
-363 -86 -60 -46 -112 -137 -127 -221 -21 -117 33 -240 134 -307 111 -73 260
-83 384 -26 102 48 158 114 245 286 l73 145 103 0 c64 0 115 5 136 14 74 31
101 119 50 167 -22 20 -38 25 -113 29 l-88 5 125 300 c139 333 149 374 109
421 l-25 29 -174 2 c-95 1 -187 -2 -203 -7z m-175 -967 c0 -13 -73 -138 -97
-168 -66 -79 -165 -100 -225 -47 -26 25 -31 36 -31 75 0 103 73 143 266 146
48 1 87 -2 87 -6z"/>
</g>
</svg>
